<svg width="513" height="513" viewBox="0 0 513 513" fill="none" xmlns="http://www.w3.org/2000/svg">
<path d="M512 1H2.00578V511.114H512V1Z" fill="white"/>
<g opacity="0.1">
<path opacity="0.1" d="M511.96 499.036V511.074H499.925" stroke="#20263C" stroke-miterlimit="10"/>
<path opacity="0.1" d="M476.778 511.074H25.5939" stroke="#20263C" stroke-miterlimit="10" stroke-dasharray="5.77 5.77"/>
<path opacity="0.1" d="M14.0406 511.074H2.00578V499.036" stroke="#20263C" stroke-miterlimit="10"/>
<path opacity="0.1" d="M2.00578 475.924V24.5932" stroke="#20263C" stroke-miterlimit="10" stroke-dasharray="5.77 5.77"/>
<path opacity="0.1" d="M2.00578 13.0376V1H14.0406" stroke="#20263C" stroke-miterlimit="10"/>
<path opacity="0.1" d="M37.1875 1H488.372" stroke="#20263C" stroke-miterlimit="10" stroke-dasharray="5.77 5.77"/>
<path opacity="0.1" d="M499.925 1H511.96V13.0376" stroke="#20263C" stroke-miterlimit="10"/>
<path opacity="0.1" d="M511.96 36.19V487.48" stroke="#20263C" stroke-miterlimit="10" stroke-dasharray="5.77 5.77"/>
</g>
<path d="M0 499.036V513H3.93135V499.036H0Z" fill="#20263C"/>
<path d="M0 499.036V513H3.93135V499.036H0Z" fill="#20263C"/>
<path d="M263.201 217.517C253.084 217.495 243.324 221.259 235.842 228.07C236.827 229.177 237.383 230.601 237.406 232.083C237.406 232.908 237.243 233.726 236.926 234.488C236.609 235.25 236.145 235.941 235.559 236.523C234.974 237.105 234.279 237.565 233.515 237.877C232.751 238.19 231.933 238.348 231.108 238.342C230.039 238.343 228.989 238.067 228.059 237.54C223.505 245.277 221.634 254.302 222.737 263.211C223.841 272.121 227.857 280.417 234.161 286.808C240.465 293.199 248.704 297.328 257.596 298.551C266.488 299.775 275.535 298.026 283.331 293.575C291.126 289.125 297.233 282.223 300.701 273.942C304.17 265.661 304.805 256.466 302.51 247.787C300.214 239.108 295.115 231.43 288.006 225.949C280.897 220.467 272.177 217.489 263.201 217.477V217.517ZM263.201 271.366C260.604 271.366 258.067 270.595 255.909 269.152C253.751 267.708 252.069 265.656 251.078 263.257C250.086 260.857 249.829 258.217 250.338 255.67C250.847 253.124 252.101 250.786 253.939 248.952C255.778 247.119 258.119 245.873 260.666 245.371C263.214 244.869 265.852 245.135 268.249 246.134C270.645 247.133 272.691 248.821 274.128 250.984C275.564 253.147 276.327 255.688 276.319 258.285C276.319 260.006 275.979 261.71 275.319 263.3C274.66 264.889 273.693 266.334 272.474 267.549C271.256 268.764 269.809 269.727 268.218 270.381C266.626 271.037 264.921 271.371 263.201 271.366Z" fill="#414042"/>
<path d="M363.812 296.283L278.365 148.26C270.021 133.815 256.381 133.815 248.077 148.26L162.47 296.283C154.126 310.688 160.945 322.525 177.633 322.525H348.648C365.336 322.645 372.156 310.808 363.812 296.283ZM263.201 302.903C255.223 302.901 247.39 300.763 240.517 296.71C233.644 292.657 227.981 286.837 224.117 279.855C220.252 272.874 218.326 264.985 218.54 257.007C218.754 249.029 221.099 241.254 225.331 234.49C225.007 233.743 224.843 232.936 224.85 232.122C224.85 230.462 225.509 228.87 226.683 227.696C227.857 226.522 229.448 225.863 231.108 225.863C231.482 225.821 231.858 225.821 232.231 225.863C237.503 220.793 243.936 217.095 250.969 215.092C258.002 213.089 265.419 212.843 272.569 214.376C279.719 215.908 286.384 219.172 291.979 223.881C297.574 228.59 301.929 234.601 304.66 241.386C307.392 248.17 308.417 255.521 307.646 262.795C306.876 270.068 304.333 277.041 300.239 283.102C296.147 289.163 290.63 294.127 284.172 297.559C277.714 300.99 270.513 302.784 263.201 302.783V302.903Z" fill="#414042"/>
</svg>
